<?xml version="1.0" encoding="UTF-8"?>
<svg id="Camada_1" xmlns="http://www.w3.org/2000/svg" viewBox="0 0 250 60">
  <defs>
    <style>
      .cls-1 {
        fill: #67113f;
      }

      .cls-1, .cls-2, .cls-3 {
        fill-rule: evenodd;
      }

      .cls-4, .cls-3 {
        fill: #ed6f26;
      }

      .cls-2 {
        fill: #ee7337;
      }
    </style>
  </defs>
  <polygon class="cls-1" points="4.29 50.04 23.02 6.52 44.34 53.48 25 32.96 11.18 44.36 4.29 50.04"/>
  <polygon class="cls-3" points="64.23 9.96 45.49 53.48 24.17 6.52 43.52 27.04 57.34 15.64 64.23 9.96"/>
  <path class="cls-2" d="M68.48,16.15h7.61c4.62,5.36,10.56,12.27,17.8,20.73h.05v-20.73s7.78,0,7.78,0v30.54c0,.1-.04.15-.12.15h-7.72l-17.76-20.64v20.49c0,.1-.04.15-.11.15h-7.54c-.08,0-.11-.05-.11-.15v-30.39c0-.1.05-.15.11-.15Z"/>
  <path class="cls-3" d="M115.23,16.17l12.56,20.35,13.1-20.35h10.18l-17.85,27.73c-.61.89-1.36,1.68-2.25,2.38-.89.7-2,1.05-3.34,1.05s-2.4-.33-3.27-.99c-.88-.66-1.62-1.47-2.23-2.45l-17.48-27.73h10.6Z"/>
  <path class="cls-3" d="M169.96,39.36c2.17,0,4.01-.1,5.51-.3,1.5-.2,2.72-.59,3.65-1.17.93-.58,1.61-1.38,2.02-2.41.42-1.02.63-2.36.63-4.01s-.21-2.99-.63-4.01c-.42-1.02-1.09-1.82-2.02-2.38-.93-.57-2.15-.95-3.65-1.14-1.5-.2-3.34-.3-5.51-.3s-4,.1-5.51.3c-1.5.2-2.72.58-3.65,1.14-.93.56-1.61,1.36-2.02,2.38-.42,1.02-.63,2.36-.63,4.01s.21,2.99.63,4.01c.42,1.02,1.09,1.83,2.02,2.41.93.58,2.15.97,3.65,1.17,1.5.2,3.34.3,5.51.3ZM169.96,15.67c6.79,0,11.88,1.27,15.29,3.8,3.41,2.54,5.11,6.54,5.11,12.01s-1.7,9.52-5.09,12.05c-3.39,2.54-8.5,3.8-15.31,3.8s-11.95-1.27-15.33-3.8c-3.38-2.54-5.07-6.55-5.07-12.05s1.7-9.47,5.09-12.01c3.39-2.54,8.5-3.8,15.31-3.8Z"/>
  <rect class="cls-4" x="194.86" y="16.17" width="8.63" height="30.66"/>
  <path class="cls-3" d="M245.71,27.68c0,1.71-.31,3.26-.92,4.65-.61,1.39-1.51,2.57-2.69,3.55-1.18.98-2.62,1.74-4.32,2.29-1.7.55-3.63.82-5.8.82h-14.6v7.84h-8.59v-15.67h24.03c1.33,0,2.37-.32,3.11-.96.74-.64,1.11-1.5,1.11-2.57s-.37-1.92-1.11-2.54c-.74-.63-1.77-.94-3.11-.94h-24.03l5.72-7.97h17.52c2.17,0,4.1.28,5.8.85,1.7.57,3.13,1.35,4.3,2.36,1.17,1.01,2.06,2.22,2.67,3.62.61,1.41.92,2.96.92,4.68Z"/>
</svg>